<mxfile host="Electron" agent="Mozilla/5.0 (Windows NT 10.0; Win64; x64) AppleWebKit/537.36 (KHTML, like Gecko) draw.io/24.7.8 Chrome/128.0.6613.36 Electron/32.0.1 Safari/537.36" version="24.7.8">
  <diagram name="Page-1" id="At_7ueGg2JNdIWQAxVkD">
    <mxGraphModel dx="974" dy="950" grid="0" gridSize="10" guides="1" tooltips="1" connect="1" arrows="1" fold="1" page="0" pageScale="1" pageWidth="827" pageHeight="1169" math="0" shadow="0">
      <root>
        <mxCell id="0" />
        <mxCell id="1" parent="0" />
        <mxCell id="Z4-HTb1rKmvqbh2rLwNZ-1" value="Monitor" style="swimlane;fontStyle=2;align=center;verticalAlign=top;childLayout=stackLayout;horizontal=1;startSize=26;horizontalStack=0;resizeParent=1;resizeLast=0;collapsible=1;marginBottom=0;rounded=0;shadow=0;strokeWidth=1;" parent="1" vertex="1">
          <mxGeometry x="337" y="-12" width="220" height="340" as="geometry">
            <mxRectangle x="230" y="140" width="160" height="26" as="alternateBounds" />
          </mxGeometry>
        </mxCell>
        <mxCell id="Z4-HTb1rKmvqbh2rLwNZ-2" value="- _marca: str&#xa;- _tamanio: float&#xa;- _tipoPantalla: str&#xa;-_tiposConexion: str" style="text;align=left;verticalAlign=top;spacingLeft=4;spacingRight=4;overflow=hidden;rotatable=0;points=[[0,0.5],[1,0.5]];portConstraint=eastwest;" parent="Z4-HTb1rKmvqbh2rLwNZ-1" vertex="1">
          <mxGeometry y="26" width="220" height="74" as="geometry" />
        </mxCell>
        <mxCell id="Z4-HTb1rKmvqbh2rLwNZ-3" value="" style="line;html=1;strokeWidth=1;align=left;verticalAlign=middle;spacingTop=-1;spacingLeft=3;spacingRight=3;rotatable=0;labelPosition=right;points=[];portConstraint=eastwest;" parent="Z4-HTb1rKmvqbh2rLwNZ-1" vertex="1">
          <mxGeometry y="100" width="220" height="8" as="geometry" />
        </mxCell>
        <mxCell id="Z4-HTb1rKmvqbh2rLwNZ-4" value="+ __init__(marca: str, tamanio:float,&#xa;                    tipoPantalla: str,&#xa;                    tiposConexion: str)&#xa;&#xa;&#xa;+ getMarca (): str&#xa;+ getTamanio (): float&#xa;+ getTipoPantalla (): str&#xa;+ getTiposConexion (): str&#xa;&#xa;+ setMarca ( nuevaMarca:str )&#xa;+ setTamanio ( nuevoTamanio: float )&#xa;+ setTipoPantalla ( nuevaPantalla: str )&#xa;+ setTiposConexion ( nuevaConexion )&#xa;&#xa;&#xa;" style="text;align=left;verticalAlign=top;spacingLeft=4;spacingRight=4;overflow=hidden;rotatable=0;points=[[0,0.5],[1,0.5]];portConstraint=eastwest;" parent="Z4-HTb1rKmvqbh2rLwNZ-1" vertex="1">
          <mxGeometry y="108" width="220" height="232" as="geometry" />
        </mxCell>
        <mxCell id="Z4-HTb1rKmvqbh2rLwNZ-5" value="Teclado" style="swimlane;fontStyle=0;align=center;verticalAlign=top;childLayout=stackLayout;horizontal=1;startSize=26;horizontalStack=0;resizeParent=1;resizeLast=0;collapsible=1;marginBottom=0;rounded=0;shadow=0;strokeWidth=1;" parent="1" vertex="1">
          <mxGeometry x="637" y="-12" width="310" height="340" as="geometry">
            <mxRectangle x="550" y="140" width="160" height="26" as="alternateBounds" />
          </mxGeometry>
        </mxCell>
        <mxCell id="Z4-HTb1rKmvqbh2rLwNZ-6" value="- _marca: str&#xa;- _lenguaje: str&#xa;- _tecladoNumerico: bool = True&#xa;- _retroiluminacion: bool = True&#xa;" style="text;align=left;verticalAlign=top;spacingLeft=4;spacingRight=4;overflow=hidden;rotatable=0;points=[[0,0.5],[1,0.5]];portConstraint=eastwest;" parent="Z4-HTb1rKmvqbh2rLwNZ-5" vertex="1">
          <mxGeometry y="26" width="310" height="74" as="geometry" />
        </mxCell>
        <mxCell id="Z4-HTb1rKmvqbh2rLwNZ-7" value="" style="line;html=1;strokeWidth=1;align=left;verticalAlign=middle;spacingTop=-1;spacingLeft=3;spacingRight=3;rotatable=0;labelPosition=right;points=[];portConstraint=eastwest;" parent="Z4-HTb1rKmvqbh2rLwNZ-5" vertex="1">
          <mxGeometry y="100" width="310" height="8" as="geometry" />
        </mxCell>
        <mxCell id="Z4-HTb1rKmvqbh2rLwNZ-8" value="+ __init__(marca:str,&amp;nbsp;&lt;span style=&quot;background-color: initial;&quot;&gt;lenguaje: str,&lt;/span&gt;&lt;div&gt;&lt;span style=&quot;background-color: initial;&quot;&gt;&lt;span style=&quot;white-space: pre;&quot;&gt;&#x9;&lt;/span&gt;&lt;span style=&quot;white-space: pre;&quot;&gt;&#x9;&lt;/span&gt;&lt;span style=&quot;white-space: pre;&quot;&gt;&#x9;&lt;/span&gt;&lt;span style=&quot;white-space: pre;&quot;&gt;&#x9;&lt;/span&gt;&lt;span style=&quot;white-space: pre;&quot;&gt;&#x9;&lt;/span&gt;tecladoNumerico: bool,&lt;/span&gt;&lt;div&gt;&lt;span style=&quot;white-space: pre;&quot;&gt;&#x9;&lt;/span&gt;&lt;span style=&quot;white-space: pre;&quot;&gt;&#x9;&lt;/span&gt;&lt;span style=&quot;white-space: pre;&quot;&gt;&#x9;&lt;/span&gt;&lt;span style=&quot;white-space: pre;&quot;&gt;&#x9;&lt;/span&gt;&lt;span style=&quot;white-space: pre;&quot;&gt;&#x9;&lt;/span&gt;retroiluminacion: bool)&lt;/div&gt;&lt;div&gt;&lt;br&gt;&lt;/div&gt;&lt;div&gt;&amp;nbsp; &amp;nbsp;&lt;/div&gt;&lt;div&gt;+ getMarca(): str&lt;/div&gt;&lt;div&gt;+ getLenguaje(): str&lt;/div&gt;&lt;div&gt;+ getTecladoNumerico: bool&lt;/div&gt;&lt;div&gt;+ getRetroiluminacion: bool&lt;/div&gt;&lt;div&gt;&lt;br&gt;&lt;/div&gt;&lt;div&gt;+ setMarca ( nuevaMarca: str )&lt;/div&gt;&lt;div&gt;+ setLenguaje ( nuevoLenguaje: str )&lt;/div&gt;&lt;div&gt;+ setTecladoNumerico ( nuevoTeclado: bool )&lt;/div&gt;&lt;div&gt;+ setRetroiluminacion ( nuevoRetroilumnacion: bool )&lt;/div&gt;&lt;div&gt;&lt;br&gt;&lt;/div&gt;&lt;/div&gt;" style="text;html=1;align=left;verticalAlign=middle;resizable=0;points=[];autosize=1;strokeColor=none;fillColor=none;fontSize=12;" parent="Z4-HTb1rKmvqbh2rLwNZ-5" vertex="1">
          <mxGeometry y="108" width="310" height="230" as="geometry" />
        </mxCell>
        <mxCell id="Z4-HTb1rKmvqbh2rLwNZ-9" value="" style="edgeStyle=none;curved=1;rounded=0;orthogonalLoop=1;jettySize=auto;html=1;fontSize=12;startSize=8;endSize=8;" parent="Z4-HTb1rKmvqbh2rLwNZ-5" target="Z4-HTb1rKmvqbh2rLwNZ-8" edge="1">
          <mxGeometry relative="1" as="geometry">
            <mxPoint x="155" y="338" as="sourcePoint" />
          </mxGeometry>
        </mxCell>
        <mxCell id="Z4-HTb1rKmvqbh2rLwNZ-10" value="" style="edgeStyle=none;curved=1;rounded=0;orthogonalLoop=1;jettySize=auto;html=1;fontSize=12;startSize=8;endSize=8;" parent="Z4-HTb1rKmvqbh2rLwNZ-5" target="Z4-HTb1rKmvqbh2rLwNZ-8" edge="1">
          <mxGeometry relative="1" as="geometry">
            <mxPoint x="155" y="338" as="sourcePoint" />
          </mxGeometry>
        </mxCell>
        <mxCell id="Mj8Nd55oJApzOlk3YuFU-1" value="Computadora" style="swimlane;fontStyle=0;align=center;verticalAlign=top;childLayout=stackLayout;horizontal=1;startSize=26;horizontalStack=0;resizeParent=1;resizeLast=0;collapsible=1;marginBottom=0;rounded=0;shadow=0;strokeWidth=1;labelBackgroundColor=none;" vertex="1" parent="1">
          <mxGeometry x="469" y="507" width="324" height="632" as="geometry">
            <mxRectangle x="550" y="140" width="160" height="26" as="alternateBounds" />
          </mxGeometry>
        </mxCell>
        <mxCell id="Mj8Nd55oJApzOlk3YuFU-2" value="- _marca: str&#xa;- _modelo: str&#xa;- _procesador: str&#xa;- _memoriaRam: int&#xa;- _almacenamiento: int&#xa;- _sistemaOperativo: str&#xa;- _monitor&#xa;- _teclado" style="text;align=left;verticalAlign=top;spacingLeft=4;spacingRight=4;overflow=hidden;rotatable=0;points=[[0,0.5],[1,0.5]];portConstraint=eastwest;labelBackgroundColor=none;" vertex="1" parent="Mj8Nd55oJApzOlk3YuFU-1">
          <mxGeometry y="26" width="324" height="125" as="geometry" />
        </mxCell>
        <mxCell id="Mj8Nd55oJApzOlk3YuFU-4" value="" style="line;html=1;strokeWidth=1;align=left;verticalAlign=middle;spacingTop=-1;spacingLeft=3;spacingRight=3;rotatable=0;labelPosition=right;points=[];portConstraint=eastwest;labelBackgroundColor=none;" vertex="1" parent="Mj8Nd55oJApzOlk3YuFU-1">
          <mxGeometry y="151" width="324" height="8" as="geometry" />
        </mxCell>
        <mxCell id="Mj8Nd55oJApzOlk3YuFU-5" value="+ __init__(marca: str, modelo: str, &#xa;                    procesador: str, memoriaRam: int, &#xa;                    almacenamiento: int, sistemaOperativo: str,&#xa;                     monitor, teclado):&#xa;&#xa;+ getMarca(): &#xa;+ getModelo():&#xa;+ getProcesador():&#xa;+ getMemoriaRam():&#xa;+ getAlmacenamiento():&#xa;+ getSistemaOperativo():&#xa;&#xa;&#xa;    + setMarca(nuevaMarca: str)&#xa;+ setModelo(nuevoModelo: str)&#xa;+ setProcesador(nuevoProcesador: str)&#xa;    + setMemoriaRam(nuevaMemoRam: int)&#xa;+ setAlmacenamiento(nuevoAlmacenamiento: int)&#xa;+ setSistemaOperativo(nuevoSO: str)&#xa;&#xa;&#xa;+ obtenerTamanioMonitor():&#xa;+ obtenerMarcaTeclado():&#xa;    " style="text;align=left;verticalAlign=top;spacingLeft=4;spacingRight=4;overflow=hidden;rotatable=0;points=[[0,0.5],[1,0.5]];portConstraint=eastwest;labelBackgroundColor=none;" vertex="1" parent="Mj8Nd55oJApzOlk3YuFU-1">
          <mxGeometry y="159" width="324" height="348" as="geometry" />
        </mxCell>
        <mxCell id="Mj8Nd55oJApzOlk3YuFU-6" value="" style="endArrow=diamondThin;endFill=1;endSize=24;html=1;rounded=0;exitX=0.991;exitY=0.333;exitDx=0;exitDy=0;exitPerimeter=0;entryX=0.894;entryY=1.009;entryDx=0;entryDy=0;entryPerimeter=0;" edge="1" parent="1" source="Mj8Nd55oJApzOlk3YuFU-5" target="Z4-HTb1rKmvqbh2rLwNZ-8">
          <mxGeometry width="160" relative="1" as="geometry">
            <mxPoint x="498" y="614" as="sourcePoint" />
            <mxPoint x="621" y="454" as="targetPoint" />
            <Array as="points">
              <mxPoint x="921" y="782" />
            </Array>
          </mxGeometry>
        </mxCell>
        <mxCell id="Mj8Nd55oJApzOlk3YuFU-7" value="" style="endArrow=diamondThin;endFill=1;endSize=24;html=1;rounded=0;entryX=0.559;entryY=1.009;entryDx=0;entryDy=0;entryPerimeter=0;exitX=-0.006;exitY=0.362;exitDx=0;exitDy=0;exitPerimeter=0;" edge="1" parent="1" source="Mj8Nd55oJApzOlk3YuFU-5">
          <mxGeometry width="160" relative="1" as="geometry">
            <mxPoint x="350.99800000000005" y="775.834" as="sourcePoint" />
            <mxPoint x="363.95000000000005" y="327.998" as="targetPoint" />
            <Array as="points">
              <mxPoint x="364" y="792" />
            </Array>
          </mxGeometry>
        </mxCell>
      </root>
    </mxGraphModel>
  </diagram>
</mxfile>
